HIERARCHY
ROOT Hips
{
	OFFSET 0.000000 0.000000 0.000000
	CHANNELS 6 Xposition Yposition Zposition Xrotation Yrotation Zrotation
	JOINT LeftUpLeg_virtual
	{
		OFFSET 0.000000 0.000000 0.000000
		CHANNELS 3 Xrotation Yrotation Zrotation
		JOINT LeftUpLeg
		{
			OFFSET 10.205400 -3.823500 0.155100
			CHANNELS 3 Xrotation Yrotation Zrotation
			JOINT LeftLeg
			{
				OFFSET 0.708757 -12.982077 0.567790
				CHANNELS 3 Xrotation Yrotation Zrotation
				JOINT LeftFoot
				{
					OFFSET -0.708756 -10.717838 -2.184338
					CHANNELS 3 Xrotation Yrotation Zrotation
					JOINT LeftToeBase
					{
						OFFSET 0.108149 -7.191104 7.560241
						CHANNELS 3 Xrotation Yrotation Zrotation
						JOINT LeftToe_End
						{
							OFFSET 0.070230 0.081724 4.490308
							CHANNELS 3 Xrotation Yrotation Zrotation
							End Site
							{
								OFFSET 0 0 0
							}
						}
					}
				}
			}
		}
	}
	JOINT RightUpLeg_virtual
	{
		OFFSET 0.000000 0.000000 0.000000
		CHANNELS 3 Xrotation Yrotation Zrotation
		JOINT RightUpLeg
		{
			OFFSET -10.205400 -3.823500 0.005500
			CHANNELS 3 Xrotation Yrotation Zrotation
			JOINT RightLeg
			{
				OFFSET -0.708756 -12.982134 0.610632
				CHANNELS 3 Xrotation Yrotation Zrotation
				JOINT RightFoot
				{
					OFFSET 0.708754 -10.717769 -1.945823
					CHANNELS 3 Xrotation Yrotation Zrotation
					JOINT RightToeBase
					{
						OFFSET -0.108140 -7.191069 7.372968
						CHANNELS 3 Xrotation Yrotation Zrotation
						JOINT RightToe_End
						{
							OFFSET -0.070227 0.081735 4.479403
							CHANNELS 3 Xrotation Yrotation Zrotation
							End Site
							{
								OFFSET 0 0 0
							}
						}
					}
				}
			}
		}
	}
	JOINT Spine_virtual
	{
		OFFSET 0.000000 0.000000 0.000000
		CHANNELS 3 Xrotation Yrotation Zrotation
		JOINT Spine
		{
			OFFSET 0.000000 6.876099 0.125700
			CHANNELS 3 Xrotation Yrotation Zrotation
			JOINT Spine1
			{
				OFFSET 0.000000 5.730043 0.104720
				CHANNELS 3 Xrotation Yrotation Zrotation
				JOINT Spine1_split
				{
					OFFSET 0.000000 5.730043 0.104720
					CHANNELS 3 Xrotation Yrotation Zrotation
					JOINT Spine2
					{
						OFFSET 0.000000 5.730043 0.104720
						CHANNELS 3 Xrotation Yrotation Zrotation
						JOINT Neck_virtual
						{
							OFFSET 0.000000 0.000000 0.000000
							CHANNELS 3 Xrotation Yrotation Zrotation
							JOINT Neck
							{
								OFFSET 0.000000 10.314075 0.188496
								CHANNELS 3 Xrotation Yrotation Zrotation
								JOINT Head
								{
									OFFSET 0.000000 7.643700 -2.377400
									CHANNELS 3 Xrotation Yrotation Zrotation
									JOINT HeadTop_End
									{
										OFFSET 0.000000 43.788605 -13.619600
										CHANNELS 3 Xrotation Yrotation Zrotation
										End Site
										{
											OFFSET 0 0 0
										}
									}
								}
							}
						}
						JOINT LeftShoulder_virtual
						{
							OFFSET 0.000000 0.000000 0.000000
							CHANNELS 3 Xrotation Yrotation Zrotation
							JOINT LeftShoulder
							{
								OFFSET 2.196100 4.412489 0.087492
								CHANNELS 3 Xrotation Yrotation Zrotation
								JOINT LeftShoulder_split
								{
									OFFSET 2.196100 4.412489 0.087492
									CHANNELS 3 Xrotation Yrotation Zrotation
									JOINT LeftArm
									{
										OFFSET 8.771219 -2.981674 -0.026999
										CHANNELS 3 Xrotation Yrotation Zrotation
										JOINT LeftForeArm
										{
											OFFSET 8.512804 0.000000 -0.000000
											CHANNELS 3 Xrotation Yrotation Zrotation
											JOINT LeftHand
											{
												OFFSET 18.484802 0.000000 -0.000000
												CHANNELS 3 Xrotation Yrotation Zrotation
												End Site
												{
													OFFSET 0 0 0
												}
											}
										}
									}
								}
							}
						}
						JOINT RightShoulder_virtual
						{
							OFFSET 0.000000 0.000000 0.000000
							CHANNELS 3 Xrotation Yrotation Zrotation
							JOINT RightShoulder
							{
								OFFSET -2.196100 4.412496 0.070690
								CHANNELS 3 Xrotation Yrotation Zrotation
								JOINT RightShoulder_split
								{
									OFFSET -2.196100 4.412496 0.070690
									CHANNELS 3 Xrotation Yrotation Zrotation
									JOINT RightArm
									{
										OFFSET -8.771282 -2.981682 -0.094208
										CHANNELS 3 Xrotation Yrotation Zrotation
										JOINT RightForeArm
										{
											OFFSET -8.494598 0.000000 0.000000
											CHANNELS 3 Xrotation Yrotation Zrotation
											JOINT RightHand
											{
												OFFSET -18.483803 0.000000 0.000001
												CHANNELS 3 Xrotation Yrotation Zrotation
												End Site
												{
													OFFSET 0 0 0
												}
											}
										}
									}
								}
							}
						}
					}
				}
			}
		}
	}
}
MOTION
Frames: 9
Frame Time: 0.03333333
2.797136 19.871037 49.505249 0.000000 0.000000 0.000000 14.611624 -47.840858 20.935471 -57.417200 -32.175225 48.234417 72.711619 -30.702230 -13.527970 3.593429 10.369680 -33.664305 -5.463013 -7.348170 -5.579254 0.000000 0.000000 0.000000 10.248942 -46.333630 19.610803 -72.228042 27.701256 -26.943590 100.287408 15.605531 -2.626980 -25.346508 -16.774157 37.485236 10.679937 21.418949 -19.376690 0.000000 0.000000 0.000000 7.944631 -43.204826 17.112411 28.976214 5.857539 -10.158965 4.088915 -3.577847 -1.592869 0.332556 -0.495301 0.253805 0.000000 0.000000 0.000000 3.901501 0.238532 -1.097556 -4.357711 26.179627 -5.038182 -38.659212 14.016689 -1.664202 0.000000 0.000000 0.000000 5.730872 -2.523274 -2.521835 5.297525 -21.234107 4.752503 -3.098577 7.685062 -5.308968 -25.870359 11.054322 -31.578932 -28.101729 -63.666037 -17.781187 0.000000 0.000000 0.000000 8.629850 -0.077064 -0.351273 -1.642971 28.980769 10.282443 13.555829 2.623753 8.647651 -67.215762 -11.361157 21.921922 -15.696195 47.115150 12.314620 0.000000 0.000000 0.000000 
2.872742 19.513556 50.610252 0.000000 0.000000 0.000000 15.057944 -46.811859 21.340735 -58.707580 -31.566710 47.401701 74.037905 -29.374530 -15.303445 -0.089001 13.109434 -30.132582 -4.351883 -7.066993 -8.290005 0.000000 0.000000 0.000000 10.880372 -46.019564 20.100227 -70.899221 27.527063 -28.217771 98.739373 15.351986 -2.527979 -27.284932 -18.494197 41.935989 11.004084 21.132271 -17.378440 0.000000 0.000000 0.000000 7.346417 -42.164482 16.698540 30.086280 5.218205 -11.836681 4.422904 -3.103565 -0.675546 0.316397 -0.407749 0.293424 0.000000 0.000000 0.000000 4.303277 0.739475 -0.256320 -7.387944 27.519869 -5.741967 -37.845539 14.936084 -0.971017 0.000000 0.000000 0.000000 6.525018 -2.024135 -1.489089 5.322254 -22.340464 3.322516 -4.030478 6.015327 -4.825875 -24.098432 9.937838 -32.326934 -27.610377 -62.392351 -15.613479 0.000000 0.000000 0.000000 8.964018 0.257563 0.401445 -1.473646 28.911361 10.750725 13.183532 3.920539 9.467895 -65.537298 -9.132835 24.900686 -14.931027 49.184462 12.089552 0.000000 0.000000 0.000000 
2.771237 19.486481 51.496399 0.000000 0.000000 0.000000 15.106391 -46.508571 21.467746 -57.816629 -28.972071 46.196135 73.536822 -26.882368 -17.380632 -6.052617 16.082918 -23.340638 -3.992967 -6.779447 -11.025438 0.000000 0.000000 0.000000 11.051036 -45.417247 20.237038 -68.665107 25.962495 -29.404852 97.568467 15.368213 -3.165761 -30.188647 -20.258385 44.730366 11.750312 20.771215 -14.530425 0.000000 0.000000 0.000000 7.374872 -41.043075 16.391155 30.220121 4.890544 -12.549508 4.598305 -2.682805 -0.150845 0.300760 -0.275523 0.264310 0.000000 0.000000 0.000000 4.740764 1.111093 0.203135 -10.087450 28.819584 -6.371284 -37.875889 15.531369 -0.543514 0.000000 0.000000 0.000000 7.044906 -1.587781 -0.884910 4.930451 -22.754275 1.243868 -4.625721 4.366111 -4.293330 -24.192492 10.683956 -32.455710 -25.673370 -63.428128 -12.607886 0.000000 0.000000 0.000000 9.173108 0.460653 0.775070 -1.465548 27.915547 11.096297 12.627006 4.575905 9.836809 -64.867543 -8.009321 26.778959 -15.172401 54.195184 12.930351 0.000000 0.000000 0.000000 
2.590006 19.809452 52.130753 0.000000 0.000000 0.000000 14.853527 -46.834587 21.374454 -55.599946 -25.075218 44.668020 71.886921 -24.150639 -19.316277 -12.815458 17.659627 -15.339686 -3.611909 -6.555993 -13.344973 0.000000 0.000000 0.000000 10.849779 -44.659776 19.998314 -65.752667 23.326547 -30.472568 96.397124 15.568270 -4.374161 -33.240792 -21.609402 45.352938 12.093904 20.382741 -11.054461 0.000000 0.000000 0.000000 8.218481 -39.925512 16.308513 29.473100 4.743326 -12.515885 4.621775 -2.414284 -0.004857 0.221175 -0.216856 0.223787 0.000000 0.000000 0.000000 5.257263 1.280198 0.314543 -12.439080 29.980651 -6.795795 -39.128958 15.721204 -0.388336 0.000000 0.000000 0.000000 7.313917 -1.291065 -0.680249 4.177876 -22.661292 -1.250469 -4.787790 2.827754 -3.620580 -25.523869 12.000622 -32.280475 -20.892613 -65.387129 -7.646332 0.000000 0.000000 0.000000 9.280519 0.478888 0.820554 -1.587361 25.966819 11.333225 11.797418 4.386026 9.935319 -64.757816 -8.255202 27.983352 -16.210655 60.335282 14.420601 0.000000 0.000000 0.000000 
2.374548 20.446636 52.694206 0.000000 0.000000 0.000000 14.328034 -47.094550 21.015678 -52.805712 -20.838740 42.960080 69.452963 -22.090698 -20.776609 -18.694651 17.233658 -8.303271 -2.682317 -6.532816 -14.606944 0.000000 0.000000 0.000000 10.424441 -44.177609 19.395213 -62.460939 19.982097 -31.455091 94.331435 15.902653 -5.810427 -35.151695 -22.115353 44.308318 11.263105 20.075198 -7.295641 0.000000 0.000000 0.000000 9.349846 -38.861171 16.317687 28.100952 4.622648 -12.050729 4.594153 -2.310874 -0.193736 0.185749 -0.226935 0.159014 0.000000 0.000000 0.000000 5.912725 1.273990 0.140110 -14.660019 30.749826 -6.577365 -41.416816 15.420264 -0.393560 0.000000 0.000000 0.000000 7.440288 -1.197326 -0.790111 3.250111 -22.216039 -3.541591 -4.447257 1.580688 -2.667145 -27.457748 12.832712 -31.968315 -12.245729 -66.206492 0.165755 0.000000 0.000000 0.000000 9.349633 0.338392 0.619041 -1.788761 23.374840 11.439909 10.313571 3.684464 10.156423 -64.667931 -9.834794 28.786471 -17.786808 66.161529 16.204137 0.000000 0.000000 0.000000 
2.191086 21.327232 53.159637 0.000000 0.000000 0.000000 13.414442 -47.054649 20.301240 -50.133274 -16.880311 41.066400 66.685193 -21.017126 -21.448148 -22.174235 15.514898 -3.775464 -0.593641 -6.750992 -14.767378 0.000000 0.000000 0.000000 9.842735 -44.192342 18.454686 -59.065120 16.183850 -32.360917 90.813068 16.562042 -7.236805 -35.296744 -21.555268 42.313954 9.178632 19.834383 -3.811474 0.000000 0.000000 0.000000 10.396475 -37.888094 16.376640 26.440286 4.456834 -11.490432 4.608507 -2.327402 -0.660081 0.126912 -0.266322 0.082393 0.000000 0.000000 0.000000 6.751534 1.100132 -0.273350 -16.999149 30.784045 -5.254412 -43.974001 14.365865 -0.421219 0.000000 0.000000 0.000000 7.540890 -1.298784 -1.130718 2.323551 -21.499909 -5.056136 -3.463821 0.594930 -1.587719 -29.569340 12.431166 -31.723657 -1.816550 -63.944170 8.787938 0.000000 0.000000 0.000000 9.464562 0.053888 0.228501 -2.080866 20.550029 11.336109 8.451252 3.038612 9.849382 -63.958028 -12.319780 29.125023 -20.061309 71.414306 18.427130 0.000000 0.000000 0.000000 
1.994898 22.409906 53.556915 0.000000 0.000000 0.000000 12.329070 -46.912977 19.262945 -47.608259 -13.534498 38.946835 63.495119 -20.690313 -21.263909 -23.515564 13.548029 -1.758292 1.885549 -7.031599 -13.875502 0.000000 0.000000 0.000000 9.501572 -44.637772 17.463182 -55.564712 12.212094 -33.281087 85.621633 17.873249 -8.532674 -34.085694 -19.942178 39.781942 6.887415 19.773637 -1.229585 0.000000 0.000000 0.000000 10.881096 -37.460466 16.303680 24.686163 4.239639 -11.016761 4.694781 -2.420407 -1.324846 0.091636 -0.372181 0.068705 0.000000 0.000000 0.000000 7.751507 0.839321 -0.895440 -19.427090 29.902777 -2.599638 -45.921414 12.162978 -0.437147 0.000000 0.000000 0.000000 7.802770 -1.518154 -1.624384 1.498177 -20.364778 -5.561888 -2.391765 0.203821 -0.827189 -31.302750 10.497766 -31.831427 6.326140 -58.685907 14.402617 0.000000 0.000000 0.000000 9.730165 -0.340742 -0.368074 -2.468378 17.816497 10.874458 6.055627 2.866958 9.074947 -62.305259 -15.384603 29.198888 -24.266873 76.445219 22.446138 0.000000 0.000000 0.000000 
1.777669 23.611469 53.878868 0.000000 0.000000 0.000000 11.402458 -47.014545 18.119305 -44.772775 -10.487938 36.595139 59.434223 -20.477196 -20.464806 -24.138683 11.956369 -1.080038 4.026726 -7.257394 -12.348367 0.000000 0.000000 0.000000 9.549229 -45.180018 16.602957 -51.799936 8.397204 -34.170770 78.806367 20.023857 -9.464046 -32.194763 -17.441004 36.828015 4.931946 20.041464 0.196173 0.000000 0.000000 0.000000 10.900605 -37.820045 16.161447 23.048489 4.071768 -10.691115 4.884485 -2.513829 -2.120433 0.096925 -0.431554 0.058564 0.000000 0.000000 0.000000 8.848418 0.560374 -1.671991 -21.759017 27.998484 1.241686 -46.642368 8.663516 -0.460687 0.000000 0.000000 0.000000 8.220902 -1.794353 -2.226168 0.806235 -18.626107 -4.970797 -1.473145 0.426445 -0.814617 -32.565020 7.812041 -32.213713 11.586828 -52.095564 16.714062 0.000000 0.000000 0.000000 10.192076 -0.768184 -1.143086 -2.928944 15.477350 10.036691 3.574587 3.341251 7.597185 -59.484985 -18.725068 29.049170 -36.062545 81.498828 34.116423 0.000000 0.000000 0.000000 
1.504233 24.861372 54.037109 0.000000 0.000000 0.000000 10.840365 -47.736523 17.094268 -41.498921 -7.333540 34.188095 54.257144 -20.156856 -19.224471 -24.576173 10.850237 -1.174546 5.476391 -7.464279 -10.482191 0.000000 0.000000 0.000000 9.640003 -46.306500 15.859926 -47.933038 4.751783 -34.852307 71.259528 22.535217 -9.661289 -29.714465 -14.379384 33.697230 2.552472 20.690511 0.901723 0.000000 0.000000 0.000000 10.517191 -38.554447 15.797396 21.534227 4.044709 -10.419845 5.143231 -2.566806 -2.963865 0.073063 -0.499049 0.099365 0.000000 0.000000 0.000000 9.863508 0.284280 -2.522768 -23.829084 25.227372 5.758074 -46.198290 3.847860 -0.630030 0.000000 0.000000 0.000000 8.715138 -2.049333 -2.911656 0.227848 -16.318490 -3.544923 -1.088786 1.163979 -1.354098 -33.068443 5.288500 -32.733975 14.943474 -45.823316 17.050276 0.000000 0.000000 0.000000 10.823225 -1.164563 -2.042703 -3.434050 13.727588 8.846117 1.731380 3.944102 6.037547 -55.833443 -21.925667 28.781273 -78.562974 84.982143 76.737510 0.000000 0.000000 0.000000 
